PathFileType	4	(X/Y/Z)	/Users/niels/Desktop/University/Third Semester/Perception and Action/Exam/Gymnastics Motion Tracking/Code for Gym Tracking/Analyzed Data/Webcam_Backflip/id5_4_trajectory_Sports2D/id5_4_trajectory_Sports2D_px_person00.trc
DataRate	CameraRate	NumFrames	NumMarkers	Units	OrigDataRate	OrigDataStartFrame	OrigNumFrames
29.770992366412216	29.770992366412216	7	22	m	29.770992366412216	81	131
Frame#	Time	Hip			RHip			RKnee			RAnkle			RBigToe			RSmallToe			RHeel			LHip			LKnee			LAnkle			LBigToe			LSmallToe			LHeel			Neck			Head			Nose			RShoulder			RElbow			RWrist			LShoulder			LElbow			LWrist		
		X1	Y1	Z1	X2	Y2	Z2	X3	Y3	Z3	X4	Y4	Z4	X5	Y5	Z5	X6	Y6	Z6	X7	Y7	Z7	X8	Y8	Z8	X9	Y9	Z9	X10	Y10	Z10	X11	Y11	Z11	X12	Y12	Z12	X13	Y13	Z13	X14	Y14	Z14	X15	Y15	Z15	X16	Y16	Z16	X17	Y17	Z17	X18	Y18	Z18	X19	Y19	Z19	X20	Y20	Z20	X21	Y21	Z21	X22	Y22	Z22
81	2.7207692307692306	0.9567913793882213	-0.5195076635789954	0.0	0.9541429732016586	-0.5190793054700905	0.0	0.8458343380882187	-0.586219083944276	0.0	0.775296803154451	-0.5326331844113696	0.0	0.746989438446759	-0.5614634592826337	0.0	0.7436145329351957	-0.5545132746498707	0.0	0.7650543827422037	-0.5147211799422152	0.0	0.9545141271079388	-0.5233972013326812	0.0	0.8522673149355977	-0.5862362603538268	0.0	0.7812507766991656	-0.5303702184007387	0.0	0.754997851141667	-0.5572509138883582	0.0	0.7567955098857485	-0.5535306849836896	0.0	0.7751090385937848	-0.5090321819111994	0.0	1.0117801283978036	-0.6689748728347918	0.0	1.045256435518231	-0.7425898465670198	0.0	1.0072944726457012	-0.7155884262617965	0.0	1.0050619819511104	-0.6527940113330788	0.0	0.9351571717246072	-0.6101764472110909	0.0	0.8818793466126351	-0.6249954831415359	0.0	1.0105634891949615	-0.6567139060029543	0.0	0.9419305046004669	-0.6186195163184913	0.0	0.890489351621534	-0.625388656401202	0.0
82	2.754358974358974	0.9414247625696436	-0.5294876829874792	0.0	0.937836502942316	-0.5298509009074965	0.0	0.8425026803203514	-0.6217364911611939	0.0	0.7518989488525534	-0.6005532174190615	0.0	0.7343326841616783	-0.6472440995488433	0.0	0.7285373958941642	-0.6394526737052606	0.0	0.7373459932277078	-0.5871357918299063	0.0	0.9403985047983602	-0.5333854059555824	0.0	0.8471720177722586	-0.6214352276612569	0.0	0.7584789028753987	-0.6002475717777781	0.0	0.7407500922387863	-0.6424019798950412	0.0	0.7438278324258385	-0.6372901488406705	0.0	0.7476454950835909	-0.5840524608073102	0.0	1.0347833591782944	-0.6605459306201831	0.0	1.0846652823893295	-0.7269492693120865	0.0	1.0427320849759274	-0.7083841450805959	0.0	1.0253453148543943	-0.6477794108605053	0.0	0.9455944479319737	-0.6319232061976819	0.0	0.9036620031303498	-0.6702631580314915	0.0	1.0294334609532498	-0.648761668179277	0.0	0.9533014746830564	-0.6369685776150562	0.0	0.9125347974176659	-0.6679238658183926	0.0
83	2.7879487179487175	0.9260120401875725	-0.5494419986619473	0.0	0.9215602783171483	-0.5497954706890451	0.0	0.8425064251632637	-0.6598023160455883	0.0	0.7448261376273361	-0.6767110629512854	0.0	0.7413434797404834	-0.7339164925381254	0.0	0.7336324853148535	-0.727110021839586	0.0	0.7272233061354555	-0.6695014432439363	0.0	0.9264668768166708	-0.5530619709533723	0.0	0.8456410293340513	-0.6597846648559693	0.0	0.7520090243401422	-0.6775118304291535	0.0	0.7469443524958856	-0.7288073810012269	0.0	0.7498846357969198	-0.7228731785795449	0.0	0.7370782580140451	-0.6681614349766165	0.0	1.0497604939009146	-0.6521498331501127	0.0	1.1130457857857488	-0.706732895876319	0.0	1.0692881892284367	-0.6975477650308448	0.0	1.038081688438032	-0.6425503173954573	0.0	0.9602911825437697	-0.6560161827153188	0.0	0.9373038853925301	-0.7127428722430434	0.0	1.0412374053284827	-0.641863361679088	0.0	0.9683931708171025	-0.6585528617278514	0.0	0.9452338273283879	-0.7083388129227884	0.0
84	2.821538461538461	0.9115685968364384	-0.5790835946681556	0.0	0.9064899747318926	-0.5789066958539538	0.0	0.8455085658072987	-0.7015383160395473	0.0	0.7525912784652777	-0.7557733373209837	0.0	0.7637970706093594	-0.8156556881987028	0.0	0.7545330798932851	-0.8109378901513258	0.0	0.733378217842525	-0.7555617086402351	0.0	0.9136982400129828	-0.5822969329678993	0.0	0.8476222546614177	-0.7018852220782057	0.0	0.7603968702275833	-0.7565144535803636	0.0	0.7691491303901685	-0.8102218477795251	0.0	0.7705764634937832	-0.8043054769828946	0.0	0.7421384163861363	-0.7548189321042736	0.0	1.0562296133692677	-0.6464696469757989	0.0	1.1295641303124997	-0.6857235654539382	0.0	1.085833298757144	-0.6862739114743732	0.0	1.0426538449969396	-0.6397388951961048	0.0	0.9787928170717358	-0.6800653053067616	0.0	0.9795031147581289	-0.7463316186132934	0.0	1.0459006271725715	-0.6384155711154111	0.0	0.987096051950602	-0.6804468301342202	0.0	0.9857231786132086	-0.7405364191504474	0.0
85	2.8551282051282048	0.898981741003925	-0.6174080749953569	0.0	0.8936581788398287	-0.6166498324218114	0.0	0.8514760731107237	-0.7478348677690049	0.0	0.7712470143789064	-0.8331542467898079	0.0	0.7954167035317267	-0.8897861726538143	0.0	0.7845696015393454	-0.8870214519618964	0.0	0.7515619961822363	-0.8394947819929821	0.0	0.90271408307593	-0.6202379827894832	0.0	0.8531276343733907	-0.7482236202373865	0.0	0.779543927394	-0.8327557084620445	0.0	0.8007972272233863	-0.8835138431832625	0.0	0.7996266792694539	-0.8781056471925941	0.0	0.7588177837430821	-0.8381981948006845	0.0	1.0546986696814897	-0.6456335802155336	0.0	1.1344370258281549	-0.6671429024103597	0.0	1.092554505222086	-0.677239317017714	0.0	1.039548115070009	-0.6415780271063022	0.0	0.9994570798738919	-0.7016118106153628	0.0	1.0248435854272484	-0.7663967321976092	0.0	1.0439600563342157	-0.6400593273064143	0.0	1.007858731469706	-0.6995332056153091	0.0	1.0289539319998262	-0.7596649746043993	0.0
86	2.8887179487179484	0.8890849692619645	-0.6628594232253364	0.0	0.8839382355022606	-0.6618138600821966	0.0	0.8600613318868714	-0.7984587950968605	0.0	0.7955195295805917	-0.905155893868796	0.0	0.8294442602491277	-0.9556498318705426	0.0	0.8165067456107885	-0.9532532634398486	0.0	0.7758740641015743	-0.9163524857250246	0.0	0.8939805057838255	-0.66536307912722	0.0	0.8616284351276521	-0.7984581063834103	0.0	0.803868784421943	-0.9029209365240949	0.0	0.8348038075008509	-0.9477915072956963	0.0	0.8303392335300299	-0.9425740046763452	0.0	0.7814767550026319	-0.9137583200384535	0.0	1.0463319809579925	-0.6509700908884033	0.0	1.1287585042815498	-0.65357217438502	0.0	1.0905969564640123	-0.6724314441773145	0.0	1.030074553560184	-0.6495182957878494	0.0	1.0196426778631884	-0.7190324690635301	0.0	1.0667752993872752	-0.7714454272722316	0.0	1.036197067965008	-0.6476359088625488	0.0	1.027700880554831	-0.7138655423944511	0.0	1.0684477223336497	-0.7640680946341386	0.0
87	2.922307692307692	0.8824994768329057	-0.7131112329988327	0.0	0.8778794521369848	-0.7121605905147421	0.0	0.8702933235079692	-0.8516508254294791	0.0	0.820284044433204	-0.9687017353546751	0.0	0.8600202065802406	-1.013031687101191	0.0	0.8441486545016444	-1.0080531899028524	0.0	0.8005019303739626	-0.9821414908881405	0.0	0.8878452500815543	-0.7152767094426656	0.0	0.8718481448556384	-0.8509933865410367	0.0	0.8279699275902277	-0.9643383359210722	0.0	0.8652745563263117	-1.0028814091470015	0.0	0.8570153203214562	-0.9966377553070769	0.0	0.8045270015526023	-0.9781936258945882	0.0	1.0327350790449554	-0.6627385304239839	0.0	1.1144108083212843	-0.646792794196854	0.0	1.0817187380319586	-0.6730896255785449	0.0	1.0161175692095805	-0.6639032749848928	0.0	1.0364280440380396	-0.73197367398207	0.0	1.0992873134920018	-0.7635663814680557	0.0	1.0235515263648525	-0.6611873932621312	0.0	1.0431139069577215	-0.7233234115826908	0.0	1.0981738870856228	-0.7558113269372321	0.0
